<svg width="99" height="99" viewBox="0 0 99 99" fill="none" xmlns="http://www.w3.org/2000/svg">
<g filter="url(#filter0_d_2714_73)">
<path d="M69.9951 90.9375C66.2969 90.9375 61.1021 89.5999 53.3232 85.2539C43.8638 79.9492 36.5471 75.0518 27.1389 65.6682C18.0679 56.6029 13.6536 50.7336 7.47554 39.4915C0.496083 26.7981 1.68585 20.1445 3.01581 17.3008C4.59964 13.902 6.93749 11.8692 9.95927 9.85151C11.6756 8.72699 13.4919 7.76302 15.3852 6.97183C15.5747 6.89036 15.7508 6.81269 15.9081 6.74259C16.8459 6.32011 18.2668 5.68165 20.0666 6.36368C21.2677 6.81458 22.34 7.73722 24.0186 9.39493C27.4609 12.7899 32.1651 20.351 33.9005 24.0643C35.0656 26.567 35.8367 28.219 35.8386 30.0718C35.8386 32.2411 34.7473 33.914 33.423 35.7194C33.1749 36.0586 32.9286 36.3825 32.6899 36.697C31.2481 38.5916 30.9317 39.1391 31.1401 40.1167C31.5626 42.0813 34.7132 47.9297 39.891 53.0961C45.0687 58.2625 50.7485 61.2141 52.7207 61.6347C53.74 61.8526 54.2989 61.523 56.254 60.0301C56.5344 59.816 56.8224 59.5943 57.1236 59.3727C59.1432 57.8703 60.7384 56.8075 62.8565 56.8075H62.8678C64.7112 56.8075 66.2894 57.607 68.9038 58.9256C72.314 60.6458 80.1024 65.2893 83.5182 68.7354C85.1797 70.4102 86.1062 71.4787 86.559 72.678C87.241 74.4834 86.5987 75.8987 86.18 76.8459C86.1099 77.0032 86.0323 77.1756 85.9508 77.3669C85.1534 79.2568 84.1837 81.0693 83.0541 82.7815C81.0402 85.7938 78.9998 88.126 75.5934 89.7117C73.8442 90.5391 71.9299 90.9582 69.9951 90.9375Z" fill="white"/>
<path d="M84.5431 36.7459H92.7098C92.7098 15.7984 76.895 0 55.9189 0V8.16667C72.5054 8.16667 84.5431 20.1839 84.5431 36.7459Z" fill="white"/>
<path d="M55.96 24.4999C64.5472 24.4999 68.21 28.1627 68.21 36.7499H76.3766C76.3766 23.5812 69.1287 16.3333 55.96 16.3333V24.4999Z" fill="white"/>
</g>
<defs>
<filter id="filter0_d_2714_73" x="0" y="0" width="98.7097" height="98.9382" filterUnits="userSpaceOnUse" color-interpolation-filters="sRGB">
<feFlood flood-opacity="0" result="BackgroundImageFix"/>
<feColorMatrix in="SourceAlpha" type="matrix" values="0 0 0 0 0 0 0 0 0 0 0 0 0 0 0 0 0 0 127 0" result="hardAlpha"/>
<feOffset dx="2" dy="4"/>
<feGaussianBlur stdDeviation="2"/>
<feComposite in2="hardAlpha" operator="out"/>
<feColorMatrix type="matrix" values="0 0 0 0 0 0 0 0 0 0 0 0 0 0 0 0 0 0 0.25 0"/>
<feBlend mode="normal" in2="BackgroundImageFix" result="effect1_dropShadow_2714_73"/>
<feBlend mode="normal" in="SourceGraphic" in2="effect1_dropShadow_2714_73" result="shape"/>
</filter>
</defs>
</svg>
