<svg width="23" height="86" viewBox="0 0 23 86" fill="none" xmlns="http://www.w3.org/2000/svg">
<path fill-rule="evenodd" clip-rule="evenodd" d="M0.753302 16.1812C0.67704 16.8071 0.570165 21.2089 0.794257 21.4228C1.01995 21.6382 5.59694 21.5361 6.25002 21.4626C6.32617 20.8374 6.43273 16.4341 6.20906 16.2212C5.98358 16.0065 1.40606 16.1079 0.753302 16.1812Z" fill="#32B452"/>
<path fill-rule="evenodd" clip-rule="evenodd" d="M22.9374 80.6586L22.5108 80.6503L17.3732 80.6517L17.3732 85.588L17.3789 85.9986L22.9465 86L22.9374 80.6586Z" fill="#32B452"/>
<path fill-rule="evenodd" clip-rule="evenodd" d="M22.9392 0.0502849L17.3801 0.0591016L17.3715 0.468929L17.373 5.40527L18.1655 5.40527L19.9 5.40363L21.5329 5.40527L22.9378 5.40128L22.9392 0.0502849Z" fill="#32B452"/>
<path fill-rule="evenodd" clip-rule="evenodd" d="M22.9399 48.4323L22.8581 48.3537L17.3739 48.3557L17.3731 53.7021L22.9388 53.6956L22.9399 48.4323Z" fill="#32B452"/>
<path fill-rule="evenodd" clip-rule="evenodd" d="M0.677938 32.3085L0.719961 37.5822C2.31933 37.8201 4.68718 37.397 6.26852 37.6753L6.27417 32.2762L0.677938 32.3085Z" fill="#32B452"/>
<path fill-rule="evenodd" clip-rule="evenodd" d="M0.73535 0.000120151L0.731829 5.39795L6.32593 5.36936L6.28369 0.0932851C4.68454 -0.144576 2.31679 0.278571 0.735454 0.0002303L0.73535 0.000120151Z" fill="#32B452"/>
<path fill-rule="evenodd" clip-rule="evenodd" d="M17.4144 16.1089L17.3821 21.4839L23 21.4805C22.7103 19.9611 23.1507 17.6861 22.9032 16.1496L17.4144 16.109L17.4144 16.1089Z" fill="#32B452"/>
<path fill-rule="evenodd" clip-rule="evenodd" d="M22.9407 69.6076L22.9158 64.452L21.5549 64.4163L19.7737 64.4188L18.1876 64.4188L17.4412 64.4149C17.3076 64.8946 17.3066 69.2876 17.4463 69.7464L18.1876 69.7453L19.7737 69.7453L21.4463 69.7453C21.7661 69.7383 22.8272 69.8887 22.9406 69.6076L22.9407 69.6076Z" fill="#32B452"/>
<path fill-rule="evenodd" clip-rule="evenodd" d="M22.9414 32.4049C22.7584 32.2675 22.997 32.367 22.7052 32.3025L17.3796 32.2758L17.387 37.3047C17.393 37.3366 17.3996 37.3637 17.4074 37.3927L17.4735 37.5481C17.4806 37.5656 17.4966 37.5983 17.514 37.6196L22.938 37.6168L22.9413 32.4049L22.9414 32.4049Z" fill="#32B452"/>
<path fill-rule="evenodd" clip-rule="evenodd" d="M6.13039 48.3536L0.723163 48.3983L0.678046 53.6663L6.27417 53.6953L6.26457 48.6675C6.25849 48.6357 6.25167 48.6086 6.24356 48.5796L6.13039 48.3538L6.13039 48.3536Z" fill="#32B452"/>
<path fill-rule="evenodd" clip-rule="evenodd" d="M5.15264 64.4184L3.48 64.4184L1.89386 64.4184L0.720496 64.441L0.753135 69.7383L1.89397 69.7449L3.48011 69.7449L5.15275 69.7449C5.61149 69.7349 6.01605 69.8506 6.27417 69.5866L6.26713 64.4725L5.15264 64.4184Z" fill="#32B452"/>
<path fill-rule="evenodd" clip-rule="evenodd" d="M6.27173 80.6579L0.727977 80.6631L0.738002 85.9432L6.27013 85.9932L6.27173 80.6579Z" fill="#32B452"/>
</svg>
