<svg width="58" height="132" viewBox="0 0 58 132" fill="none" xmlns="http://www.w3.org/2000/svg">
<path fill-rule="evenodd" clip-rule="evenodd" d="M24.6691 24.814C24.5568 25.7738 24.3994 32.524 24.7294 32.852C25.0617 33.1823 31.8014 33.0258 32.7631 32.9131C32.8752 31.9543 33.0321 25.2017 32.7028 24.8753C32.3708 24.5461 25.6303 24.7015 24.6691 24.814Z" fill="#32B452"/>
<path fill-rule="evenodd" clip-rule="evenodd" d="M8.08254 74.1548L0.0956542 74.1536L0.0108356 82.3328L8.28059 82.3435L8.28091 76.064C8.28311 75.5851 8.39682 74.5485 8.0827 74.1548L8.08254 74.1548Z" fill="#32B452"/>
<path fill-rule="evenodd" clip-rule="evenodd" d="M57.3361 123.691L56.708 123.678L49.1428 123.68L49.1428 131.25L49.1512 131.88L57.3496 131.882L57.3361 123.691Z" fill="#32B452"/>
<path fill-rule="evenodd" clip-rule="evenodd" d="M57.3398 0.0773611L49.154 0.0908816L49.1412 0.719357L49.1434 8.28931L50.3105 8.28931L52.8646 8.28679L55.269 8.28931L57.3378 8.28318L57.3398 0.0773611Z" fill="#32B452"/>
<path fill-rule="evenodd" clip-rule="evenodd" d="M8.29102 123.68L0.0836217 123.682L0.0960293 131.88L8.27987 131.882L8.29102 123.68Z" fill="#32B452"/>
<path fill-rule="evenodd" clip-rule="evenodd" d="M8.42774 49.67L0.232901 49.6712L0.230707 57.8821L8.41658 57.8684L8.42774 49.67Z" fill="#32B452"/>
<path fill-rule="evenodd" clip-rule="evenodd" d="M57.3398 74.2719L57.2194 74.1514L49.1438 74.1544L49.1427 82.3533L57.3381 82.3432L57.3398 74.2719Z" fill="#32B452"/>
<path fill-rule="evenodd" clip-rule="evenodd" d="M24.5583 49.5456L24.6202 57.6329C26.9753 57.9977 30.462 57.3488 32.7905 57.7756L32.7988 49.4961L24.5583 49.5456Z" fill="#32B452"/>
<path fill-rule="evenodd" clip-rule="evenodd" d="M0.00694633 24.7864C0.433517 27.1164 -0.214976 30.6052 0.149556 32.9614L8.23178 33.0237L8.28125 24.7781L0.00694633 24.7864Z" fill="#32B452"/>
<path fill-rule="evenodd" clip-rule="evenodd" d="M24.6428 -5.31718e-05L24.6376 8.27759L32.875 8.23374L32.8128 0.142817C30.458 -0.221945 26.9715 0.426956 24.6429 0.000115629L24.6428 -5.31718e-05Z" fill="#32B452"/>
<path fill-rule="evenodd" clip-rule="evenodd" d="M49.2029 24.703L49.1553 32.9456L57.4277 32.9404C57.0012 30.6104 57.6497 27.1216 57.2851 24.7654L49.2029 24.7031L49.2029 24.703Z" fill="#32B452"/>
<path fill-rule="evenodd" clip-rule="evenodd" d="M8.08359 0.0903444L0.0967081 0.0890849L0.0918455 8.08195C0.361358 8.29269 0.0100088 8.14009 0.439721 8.2391C0.624107 8.28154 0.683002 8.28295 0.8743 8.29348C1.18967 8.31092 1.66964 8.28217 2.00527 8.28013L8.28165 8.27981L8.28196 1.99948C8.28338 1.68674 8.30144 1.33109 8.29578 1.027L8.08375 0.0903444L8.08359 0.0903444Z" fill="#32B452"/>
<path fill-rule="evenodd" clip-rule="evenodd" d="M57.3418 106.744L57.3052 98.8375L55.3013 98.7829L52.6784 98.7866L50.3428 98.7866L49.2437 98.7807C49.0471 99.5163 49.0455 106.253 49.2513 106.957L50.3428 106.955L52.6784 106.955L55.1413 106.955C55.6123 106.944 57.1747 107.175 57.3416 106.744L57.3418 106.744Z" fill="#32B452"/>
<path fill-rule="evenodd" clip-rule="evenodd" d="M57.3418 49.6934C57.0723 49.4826 57.4236 49.6352 56.9939 49.5362L49.152 49.4954L49.1628 57.2072C49.1716 57.2561 49.1814 57.2978 49.1928 57.3422L49.2902 57.5805C49.3007 57.6074 49.3243 57.6575 49.3499 57.6902L57.3368 57.6858L57.3416 49.6934L57.3418 49.6934Z" fill="#32B452"/>
<path fill-rule="evenodd" clip-rule="evenodd" d="M32.5871 74.1505L24.6249 74.219L24.5584 82.2976L32.7988 82.342L32.7847 74.6319C32.7757 74.583 32.7657 74.5415 32.7538 74.4971L32.5871 74.1507L32.5871 74.1505Z" fill="#32B452"/>
<path fill-rule="evenodd" clip-rule="evenodd" d="M0.000606297 98.794C0.198029 99.8125 0.195977 105.915 0.00687885 106.947L8.2793 106.956L8.2793 98.7885L0.000759838 98.794L0.000606297 98.794Z" fill="#32B452"/>
<path fill-rule="evenodd" clip-rule="evenodd" d="M31.1474 98.7867L28.6844 98.7867L26.3488 98.7867L24.621 98.8213L24.669 106.945L26.3489 106.955L28.6845 106.955L31.1475 106.955C31.823 106.94 32.4187 107.117 32.7988 106.712L32.7885 98.8696L31.1474 98.7867Z" fill="#32B452"/>
<path fill-rule="evenodd" clip-rule="evenodd" d="M32.7949 123.69L24.6317 123.698L24.6464 131.795L32.7926 131.872L32.7949 123.69Z" fill="#32B452"/>
</svg>
