<svg width="58" height="132" viewBox="0 0 58 132" fill="none" xmlns="http://www.w3.org/2000/svg">
<path fill-rule="evenodd" clip-rule="evenodd" d="M32.7586 107.068C32.8709 106.108 33.0283 99.3581 32.6983 99.0301C32.366 98.6998 25.6263 98.8563 24.6647 98.969C24.5525 99.9278 24.3956 106.68 24.725 107.007C25.057 107.336 31.7974 107.181 32.7586 107.068Z" fill="white"/>
<path fill-rule="evenodd" clip-rule="evenodd" d="M49.3452 57.7273L57.3321 57.7285L57.4169 49.5493L49.1471 49.5386L49.1468 55.8181C49.1446 56.297 49.0309 57.3336 49.345 57.7273H49.3452Z" fill="white"/>
<path fill-rule="evenodd" clip-rule="evenodd" d="M0.0916299 8.19104L0.71971 8.20377L8.28489 8.20173V0.631772L8.27657 0.0022002L0.078125 0L0.0916299 8.19104Z" fill="white"/>
<path fill-rule="evenodd" clip-rule="evenodd" d="M0.0888672 131.805L8.27474 131.791L8.28747 131.163L8.28526 123.593H7.11816L4.56409 123.595L2.15968 123.593L0.0909071 123.599L0.0888672 131.805Z" fill="white"/>
<path fill-rule="evenodd" clip-rule="evenodd" d="M49.1367 8.20173L57.3441 8.20047L57.3317 0.0022002L49.1479 0L49.1367 8.20173Z" fill="white"/>
<path fill-rule="evenodd" clip-rule="evenodd" d="M49 82.2121L57.1948 82.2108L57.197 74L49.0112 74.0137L49 82.2121Z" fill="white"/>
<path fill-rule="evenodd" clip-rule="evenodd" d="M0.0878906 57.6102L0.208353 57.7307L8.28398 57.7277L8.28508 49.5288L0.0896161 49.5389L0.0878906 57.6102Z" fill="white"/>
<path fill-rule="evenodd" clip-rule="evenodd" d="M32.8694 82.3365L32.8076 74.2491C30.4525 73.8844 26.9658 74.5333 24.6372 74.1064L24.6289 82.386L32.8694 82.3365Z" fill="white"/>
<path fill-rule="evenodd" clip-rule="evenodd" d="M57.4218 107.096C56.9952 104.766 57.6437 101.277 57.2792 98.9206L49.1969 98.8584L49.1475 107.104L57.4218 107.096Z" fill="white"/>
<path fill-rule="evenodd" clip-rule="evenodd" d="M32.7849 131.882L32.7901 123.604L24.5527 123.648L24.6149 131.739C26.9697 132.104 30.4562 131.455 32.7848 131.882L32.7849 131.882Z" fill="white"/>
<path fill-rule="evenodd" clip-rule="evenodd" d="M8.22483 107.179L8.27242 98.9365L0 98.9417C0.42657 101.272 -0.221922 104.76 0.14261 107.117L8.22483 107.179V107.179Z" fill="white"/>
<path fill-rule="evenodd" clip-rule="evenodd" d="M49.3451 131.792L57.332 131.793L57.3369 123.8C57.0674 123.589 57.4187 123.742 56.989 123.643C56.8046 123.601 56.7457 123.599 56.5544 123.589C56.239 123.571 55.7591 123.6 55.4234 123.602L49.1471 123.602L49.1467 129.883C49.1453 130.195 49.1273 130.551 49.1329 130.855L49.345 131.792H49.3451Z" fill="white"/>
<path fill-rule="evenodd" clip-rule="evenodd" d="M0.0869141 25.1383L0.12351 33.0445L2.12741 33.0992L4.75029 33.0955H7.0859L8.185 33.1014C8.38163 32.3658 8.3832 25.6291 8.17746 24.9255L7.0859 24.9272H4.75029H2.28746C1.81644 24.9379 0.254028 24.7072 0.0870751 25.1383H0.0869141Z" fill="white"/>
<path fill-rule="evenodd" clip-rule="evenodd" d="M0.0859375 82.1887C0.35545 82.3994 0.00411624 82.2468 0.433828 82.3459L8.27575 82.3867L8.26491 74.6748C8.25612 74.626 8.24638 74.5843 8.23491 74.5398L8.13754 74.3016C8.12702 74.2747 8.10345 74.2246 8.07785 74.1919L0.0909683 74.1963L0.0860985 82.1887H0.0859375Z" fill="white"/>
<path fill-rule="evenodd" clip-rule="evenodd" d="M24.8406 57.7316L32.8028 57.663L32.8693 49.5845L24.6289 49.54L24.643 57.2502C24.652 57.2991 24.662 57.3405 24.674 57.385L24.8406 57.7314V57.7316Z" fill="white"/>
<path fill-rule="evenodd" clip-rule="evenodd" d="M57.4281 33.0881C57.2307 32.0695 57.2327 25.9673 57.4218 24.9346L49.1494 24.9263V33.0936L57.428 33.0881H57.4281Z" fill="white"/>
<path fill-rule="evenodd" clip-rule="evenodd" d="M26.2804 33.0953H28.7434H31.079L32.8068 33.0608L32.7587 24.9373L31.0788 24.9271H28.7432H26.2802C25.6047 24.9425 25.009 24.7651 24.6289 25.1699L24.6393 33.0125L26.2804 33.0953Z" fill="white"/>
<path fill-rule="evenodd" clip-rule="evenodd" d="M24.6328 8.19202L32.7961 8.18401L32.7813 0.0869467L24.6352 0.0102539L24.6328 8.19202Z" fill="white"/>
</svg>
