<svg width="86" height="39" viewBox="0 0 86 39" fill="none" xmlns="http://www.w3.org/2000/svg">
<path fill-rule="evenodd" clip-rule="evenodd" d="M16.1812 22.2467C16.8071 22.323 21.2089 22.4298 21.4228 22.2057C21.6382 21.9801 21.5361 17.4031 21.4626 16.75C20.8374 16.6738 16.4341 16.5673 16.2212 16.7909C16.0065 17.0164 16.1079 21.5939 16.1812 22.2467Z" fill="#32B452"/>
<path fill-rule="evenodd" clip-rule="evenodd" d="M48.3562 33.5109L48.3554 38.9348L53.6891 38.9924L53.696 33.3764L49.6012 33.3762C49.2889 33.3747 48.6129 33.2974 48.3562 33.5108L48.3562 33.5109Z" fill="white"/>
<path fill-rule="evenodd" clip-rule="evenodd" d="M80.6586 0.0628821L80.6503 0.489418L80.6517 5.62701L85.588 5.62701L85.9986 5.62136L86 0.0537109L80.6586 0.0628821Z" fill="#32B452"/>
<path fill-rule="evenodd" clip-rule="evenodd" d="M0.050529 0.0605467L0.0593458 5.61966L0.469173 5.6283L5.40552 5.6268L5.40552 4.83421L5.40388 3.09971L5.40552 1.46685L5.40152 0.0619322L0.050529 0.0605467Z" fill="#32B452"/>
<path fill-rule="evenodd" clip-rule="evenodd" d="M80.6517 33.3691L80.6525 38.9429L85.9986 38.9344L86 33.3767L80.6517 33.3691Z" fill="white"/>
<path fill-rule="evenodd" clip-rule="evenodd" d="M32.3897 33.2764L32.3905 38.8416L37.7448 38.8431L37.7358 33.2839L32.3897 33.2764Z" fill="white"/>
<path fill-rule="evenodd" clip-rule="evenodd" d="M48.4326 0.0600585L48.354 0.141866L48.3559 5.62611L53.7024 5.62685L53.6958 0.0612304L48.4326 0.0600585Z" fill="#32B452"/>
<path fill-rule="evenodd" clip-rule="evenodd" d="M32.3086 22.3218L37.5824 22.2798C37.8202 20.6804 37.3971 18.3126 37.6754 16.7312L32.2764 16.7256L32.3086 22.3218Z" fill="#32B452"/>
<path fill-rule="evenodd" clip-rule="evenodd" d="M16.1632 38.9956C17.6826 38.7059 19.9576 39.1463 21.4941 38.8988L21.5347 33.4101L16.1578 33.3765L16.1632 38.9956Z" fill="white"/>
<path fill-rule="evenodd" clip-rule="evenodd" d="M-1.86128e-06 22.2644L5.39783 22.2679L5.36923 16.6738L0.093163 16.7161C-0.144698 18.3152 0.278449 20.683 0.000108288 22.2643L-1.86128e-06 22.2644Z" fill="#32B452"/>
<path fill-rule="evenodd" clip-rule="evenodd" d="M16.1088 5.58557L21.4838 5.61788L21.4804 0C19.961 0.289688 17.686 -0.15071 16.1495 0.0968479L16.1089 5.58557L16.1088 5.58557Z" fill="#32B452"/>
<path fill-rule="evenodd" clip-rule="evenodd" d="M0.0589743 33.5106L0.0581532 38.9345L5.27028 38.9378C5.40771 38.7548 5.3082 38.9934 5.37276 38.7016C5.40043 38.5764 5.40135 38.5364 5.40822 38.4065C5.41959 38.1923 5.40084 37.8663 5.39951 37.6384L5.39931 33.3761L1.30392 33.3758C1.09998 33.3749 0.868065 33.3626 0.669762 33.3665L0.0589743 33.5105L0.0589743 33.5106Z" fill="white"/>
<path fill-rule="evenodd" clip-rule="evenodd" d="M69.6074 0.0595703L64.4517 0.0844228L64.4161 1.44529L64.4185 3.22651L64.4185 4.81265L64.4146 5.55906C64.8943 5.6926 69.2873 5.69366 69.7461 5.55394L69.745 4.81265L69.745 3.22652L69.745 1.55398C69.738 1.23411 69.8885 0.173059 69.6074 0.0596797L69.6074 0.0595703Z" fill="#32B452"/>
<path fill-rule="evenodd" clip-rule="evenodd" d="M32.4049 0.0585936C32.2675 0.241622 32.367 0.00302798 32.3025 0.294849L32.2758 5.62038L37.3047 5.61302C37.3366 5.60704 37.3637 5.60043 37.3927 5.59264L37.5481 5.52652C37.5656 5.51937 37.5983 5.50337 37.6196 5.48598L37.6168 0.0620102L32.4049 0.058703L32.4049 0.0585936Z" fill="#32B452"/>
<path fill-rule="evenodd" clip-rule="evenodd" d="M48.3534 16.8694L48.3981 22.2766L53.6661 22.3217L53.6951 16.7256L48.6673 16.7352C48.6354 16.7413 48.6084 16.7481 48.5794 16.7562L48.3535 16.8694L48.3534 16.8694Z" fill="#32B452"/>
<path fill-rule="evenodd" clip-rule="evenodd" d="M64.4233 39.0001C65.0875 38.866 69.0668 38.8674 69.7402 38.9958L69.7456 33.3779L64.4197 33.3779L64.4233 39L64.4233 39.0001Z" fill="white"/>
<path fill-rule="evenodd" clip-rule="evenodd" d="M64.4186 17.8471L64.4186 19.5198L64.4186 21.1059L64.4411 22.2793L69.7384 22.2466L69.7451 21.1058L69.7451 19.5196L69.7451 17.847C69.735 17.3883 69.8507 16.9837 69.5867 16.7256L64.4726 16.7326L64.4186 17.8471Z" fill="#32B452"/>
<path fill-rule="evenodd" clip-rule="evenodd" d="M80.658 16.7285L80.6632 22.2723L85.9433 22.2622L85.9933 16.7301L80.658 16.7285Z" fill="#32B452"/>
</svg>
