<svg width="45" height="45" viewBox="0 0 45 45" fill="none" xmlns="http://www.w3.org/2000/svg">
<path d="M36.407 12.5231C38.3382 14.5744 39.3751 16.875 39.3751 20.6044C39.3751 27.1669 34.7682 33.0487 28.0688 35.9569L26.3945 33.3731C32.6476 29.9906 33.8701 25.6013 34.3576 22.8338C33.3507 23.355 32.0326 23.5369 30.7407 23.4169C27.3582 23.1038 24.692 20.3269 24.692 16.875C24.692 15.1345 25.3834 13.4653 26.6141 12.2346C27.8448 11.0039 29.514 10.3125 31.2545 10.3125C33.2663 10.3125 35.1901 11.2312 36.407 12.5231ZM17.657 12.5231C19.5882 14.5744 20.6251 16.875 20.6251 20.6044C20.6251 27.1669 16.0182 33.0487 9.31885 35.9569L7.64447 33.3731C13.8976 29.9906 15.1201 25.6013 15.6076 22.8338C14.6007 23.355 13.2826 23.5369 11.9907 23.4169C8.60822 23.1038 5.94385 20.3269 5.94385 16.875C5.94385 15.1345 6.63525 13.4653 7.86596 12.2346C9.09667 11.0039 10.7659 10.3125 12.5063 10.3125C14.5182 10.3125 16.442 11.2312 17.6588 12.5231H17.657Z" fill="#32B452"/>
</svg>
