<svg width="45" height="45" viewBox="0 0 45 45" fill="none" xmlns="http://www.w3.org/2000/svg">
<path d="M8.59303 12.5231C6.66178 14.5744 5.6249 16.875 5.6249 20.6044C5.6249 27.1669 10.2318 33.0487 16.9312 35.9569L18.6055 33.3731C12.3524 29.9906 11.1299 25.6013 10.6424 22.8338C11.6493 23.355 12.9674 23.5369 14.2593 23.4169C17.6418 23.1038 20.308 20.3269 20.308 16.875C20.308 15.1345 19.6166 13.4653 18.3859 12.2346C17.1552 11.0039 15.486 10.3125 13.7455 10.3125C11.7337 10.3125 9.8099 11.2312 8.59303 12.5231ZM27.343 12.5231C25.4118 14.5744 24.3749 16.875 24.3749 20.6044C24.3749 27.1669 28.9818 33.0487 35.6812 35.9569L37.3555 33.3731C31.1024 29.9906 29.8799 25.6013 29.3924 22.8338C30.3993 23.355 31.7174 23.5369 33.0093 23.4169C36.3918 23.1038 39.0562 20.3269 39.0562 16.875C39.0562 15.1345 38.3647 13.4653 37.134 12.2346C35.9033 11.0039 34.2341 10.3125 32.4937 10.3125C30.4818 10.3125 28.558 11.2312 27.3412 12.5231H27.343Z" fill="#32B452"/>
</svg>
